<?xml version="1.0" encoding="utf-8"?>
<!-- Generator: Adobe Illustrator 25.2.0, SVG Export Plug-In . SVG Version: 6.00 Build 0)  -->
<svg version="1.1" id="Layer_1" xmlns="http://www.w3.org/2000/svg" xmlns:xlink="http://www.w3.org/1999/xlink" x="0px" y="0px"
	 viewBox="0 0 512 408" style="enable-background:new 0 0 512 408;" xml:space="preserve">
<style type="text/css">
	.st0{fill:#CDA45E;}
</style>
<g>
	<g>
		<g>
			<g>
				<g>
					<path class="st0" d="M292.1,281.3c-2.3,0-4.1-1.8-4.1-4.1c0-41.8,22.3-67.9,29.6-75.3L272,101.8L226.4,202
						c7.3,7.4,29.6,33.5,29.6,75.3c0,2.3-1.8,4.1-4.1,4.1c-2.3,0-4.1-1.8-4.1-4.1c0-45.2-28.7-71-29-71.3c-1.3-1.2-1.8-3.1-1-4.7
						l50.5-110.9c0.7-1.5,2.1-2.4,3.7-2.4h0c1.6,0,3,0.9,3.7,2.4l50.6,110.9c0.7,1.6,0.3,3.6-1,4.8c-0.3,0.3-29,26.2-29,71.3
						C296.2,279.5,294.4,281.3,292.1,281.3z"/>
				</g>
				<g>
					<path class="st0" d="M272,205.2c-1.8,0-3.3-1.5-3.3-3.3V92c0-1.8,1.5-3.3,3.3-3.3s3.3,1.5,3.3,3.3v109.9
						C275.2,203.7,273.8,205.2,272,205.2z"/>
				</g>
				<path class="st0" d="M284.8,201.9c0,7.1-5.8,12.9-12.9,12.9c-7.1,0-12.9-5.8-12.9-12.9c0-7.1,5.8-12.9,12.9-12.9
					C279.1,189,284.8,194.8,284.8,201.9z"/>
			</g>
			<g>
				<g>
					<path class="st0" d="M148.8,149C148.8,149,148.8,149,148.8,149c-1.8,0-3.3-1.5-3.3-3.3c0-0.9,0.4-23,19.8-40.4
						c18.2-16.4,46.5-22.8,84.2-19.1c41.3,4.1,73.3-2.7,92.5-19.5c15.9-13.9,18.8-30.6,19.2-39.4c0.1-1.8,1.5-3.2,3.4-3.1
						c1.8,0.1,3.2,1.6,3.1,3.4c-0.4,9.8-3.6,28.5-21.4,44c-20.6,18-54.3,25.3-97.4,21c-35.7-3.5-62.3,2.3-79.1,17.4
						c-17.3,15.4-17.7,35.5-17.7,35.7C152,147.6,150.6,149,148.8,149z"/>
				</g>
				<rect x="344.8" y="16.6" class="st0" width="30.4" height="30.4"/>
				<rect x="127.5" y="124.5" class="st0" width="42.6" height="42.6"/>
			</g>
			<g>
				<g>
					<path class="st0" d="M348.2,142.2c-0.1,0-0.3,0-0.4-0.1L202.6,41.7c-0.3-0.2-0.4-0.7-0.2-1c0.2-0.3,0.7-0.4,1-0.2l145.2,100.3
						c0.3,0.2,0.4,0.7,0.2,1C348.7,142.1,348.4,142.2,348.2,142.2z"/>
				</g>
				<g>
					<path class="st0" d="M356.2,141.4c0,4.4-3.6,8-8,8c-4.4,0-8-3.6-8-8c0-4.4,3.6-8,8-8C352.6,133.5,356.2,137,356.2,141.4z"/>
					<path class="st0" d="M212.9,41.4c0,4.4-3.6,8-8,8c-4.4,0-8-3.6-8-8c0-4.4,3.6-8,8-8C209.3,33.5,212.9,37,212.9,41.4z"/>
				</g>
			</g>
		</g>
		<rect x="218.6" y="277.3" class="st0" width="106.9" height="23.8"/>
	</g>
	<g>
		<path class="st0" d="M166,349.1h-12.9v-22.3h29.1c8.2,0,14.2,2,18.1,6c3.9,4,5.9,9,5.9,15.1c0,3.5-0.8,6.4-2.4,8.8
			c-1.6,2.4-3.5,4.1-5.9,5.2c-2.4,1.1-5.1,2-8.1,2.7c-3,0.7-5.8,1.2-8.5,1.3c-2.7,0.2-5.2,0.6-7.5,1.1c-2.3,0.5-4,1.2-4.8,2.1
			c-0.6,0.6-0.9,1.4-0.9,2.4v4.5h22.6l1.2-7h12.9v22.3h-51.9v-20.6c0-3.6,0.7-6.6,2.1-9c1.4-2.4,3.2-4.1,5.4-5.2
			c2.2-1.1,4.7-1.9,7.5-2.6c2.9-0.7,5.6-1.1,8.2-1.2c2.6-0.2,5.2-0.5,7.7-1c2.5-0.5,4.4-1.2,5.7-2c1-0.7,1.4-1.9,1.4-3.5
			c0-1-0.4-2-1.2-2.8s-1.8-1.3-3-1.3H167L166,349.1z"/>
		<path class="st0" d="M236.9,326.5h3c6.7,0,12.4,2.4,17.1,7.1c4.8,4.7,7.2,10.5,7.2,17.2v16.4c0,6.7-2.4,12.4-7.2,17.1
			c-4.8,4.7-10.5,7.1-17.1,7.1h-3c-6.7,0-12.4-2.4-17.1-7.1c-4.7-4.7-7.1-10.4-7.1-17.1v-16.4c0-6.7,2.4-12.5,7.1-17.2
			C224.5,328.8,230.2,326.5,236.9,326.5z M248.6,367.2v-16.4c0-2.4-0.9-4.5-2.5-6.2s-3.8-2.6-6.2-2.6h-3c-2.4,0-4.5,0.9-6.2,2.6
			s-2.6,3.8-2.6,6.2v16.4c0,2.4,0.9,4.5,2.6,6.2c1.8,1.7,3.8,2.6,6.2,2.6h3c2.4,0,4.5-0.9,6.2-2.6S248.6,369.6,248.6,367.2z"/>
		<path class="st0" d="M283.5,349.1h-12.9v-22.3h29.1c8.2,0,14.2,2,18.2,6c3.9,4,5.9,9,5.9,15.1c0,3.5-0.8,6.4-2.4,8.8
			c-1.6,2.4-3.5,4.1-5.9,5.2c-2.4,1.1-5.1,2-8.1,2.7c-3,0.7-5.8,1.2-8.5,1.3c-2.7,0.2-5.2,0.6-7.5,1.1c-2.3,0.5-4,1.2-4.9,2.1
			c-0.6,0.6-0.9,1.4-0.9,2.4v4.5h22.6l1.2-7h12.9v22.3h-51.9v-20.6c0-3.6,0.7-6.6,2.1-9c1.4-2.4,3.2-4.1,5.4-5.2
			c2.2-1.1,4.7-1.9,7.5-2.6s5.6-1.1,8.2-1.2c2.6-0.2,5.2-0.5,7.7-1c2.5-0.5,4.4-1.2,5.7-2c1-0.7,1.4-1.9,1.4-3.5c0-1-0.4-2-1.2-2.8
			c-0.8-0.9-1.8-1.3-3-1.3h-19.7L283.5,349.1z"/>
		<path class="st0" d="M344.2,349.1h-12.9v-22.3h29.1c8.2,0,14.2,2,18.2,6c3.9,4,5.9,9,5.9,15.1c0,3.5-0.8,6.4-2.4,8.8
			c-1.6,2.4-3.5,4.1-5.9,5.2c-2.4,1.1-5.1,2-8.1,2.7c-3,0.7-5.8,1.2-8.5,1.3c-2.7,0.2-5.2,0.6-7.5,1.1c-2.3,0.5-4,1.2-4.9,2.1
			c-0.6,0.6-0.9,1.4-0.9,2.4v4.5H369l1.2-7H383v22.3h-51.9v-20.6c0-3.6,0.7-6.6,2.1-9c1.4-2.4,3.2-4.1,5.4-5.2
			c2.2-1.1,4.7-1.9,7.5-2.6s5.6-1.1,8.2-1.2c2.6-0.2,5.2-0.5,7.7-1c2.5-0.5,4.4-1.2,5.7-2c1-0.7,1.4-1.9,1.4-3.5c0-1-0.4-2-1.2-2.8
			c-0.8-0.9-1.8-1.3-3-1.3h-19.7L344.2,349.1z"/>
	</g>
</g>
</svg>
